<svg width="28" height="29" viewBox="0 0 28 29" fill="none" xmlns="http://www.w3.org/2000/svg">
<rect width="28" height="29" fill="#1E1E1E"/>
<g clip-path="url(#clip0_0_1)">
<rect width="1920" height="7590" transform="translate(-536 -7353)" fill="#FDFDFD"/>
<g filter="url(#filter0_ii_0_1)">
<path d="M-13.3712 13.3594C-13.3712 -1.75725 -1.11665 -14.0117 14 -14.0117C29.1167 -14.0117 41.3712 -1.75722 41.3712 13.3595V15.6405C41.3712 30.7572 29.1167 43.0117 14 43.0117C-1.11665 43.0117 -13.3712 30.7572 -13.3712 15.6405V13.3594Z" fill="url(#paint0_linear_0_1)" fill-opacity="0.1"/>
<path d="M13.9999 -13.5117C28.8404 -13.5117 40.871 -1.48113 40.871 13.3594V15.6406C40.871 30.4811 28.8404 42.5117 13.9999 42.5117C-0.840517 42.5117 -12.8711 30.4811 -12.8712 15.6406V13.3594C-12.8711 -1.48111 -0.840539 -13.5117 13.9999 -13.5117Z" stroke="url(#paint1_linear_0_1)"/>
<path d="M23.1233 5.37646H4.87666C3.6222 5.37646 2.60723 6.40284 2.60723 7.6573L2.59583 21.3423C2.59583 22.5968 3.6222 23.6231 4.87666 23.6231H23.1233C24.3778 23.6231 25.4042 22.5968 25.4042 21.3423V7.6573C25.4042 6.40284 24.3778 5.37646 23.1233 5.37646ZM23.1233 9.93813L14 15.6402L4.87666 9.93813V7.6573L14 13.3594L23.1233 7.6573V9.93813Z" fill="#BF0B30"/>
</g>
<g opacity="0.9" filter="url(#filter1_f_0_1)">
<path d="M269.499 -455L2321.5 833.097L2281 897.614L229 -390.483L269.499 -455Z" fill="url(#paint2_linear_0_1)"/>
</g>
</g>
<defs>
<filter id="filter0_ii_0_1" x="-31.647" y="-32.2876" width="91.2941" height="93.5752" filterUnits="userSpaceOnUse" color-interpolation-filters="sRGB">
<feFlood flood-opacity="0" result="BackgroundImageFix"/>
<feBlend mode="normal" in="SourceGraphic" in2="BackgroundImageFix" result="shape"/>
<feColorMatrix in="SourceAlpha" type="matrix" values="0 0 0 0 0 0 0 0 0 0 0 0 0 0 0 0 0 0 127 0" result="hardAlpha"/>
<feOffset dx="-9.13793" dy="9.13793"/>
<feGaussianBlur stdDeviation="4.56897"/>
<feComposite in2="hardAlpha" operator="arithmetic" k2="-1" k3="1"/>
<feColorMatrix type="matrix" values="0 0 0 0 1 0 0 0 0 1 0 0 0 0 1 0 0 0 0.1 0"/>
<feBlend mode="normal" in2="shape" result="effect1_innerShadow_0_1"/>
<feColorMatrix in="SourceAlpha" type="matrix" values="0 0 0 0 0 0 0 0 0 0 0 0 0 0 0 0 0 0 127 0" result="hardAlpha"/>
<feOffset dx="9.13793" dy="-9.13793"/>
<feGaussianBlur stdDeviation="4.56897"/>
<feComposite in2="hardAlpha" operator="arithmetic" k2="-1" k3="1"/>
<feColorMatrix type="matrix" values="0 0 0 0 0.661647 0 0 0 0 0.140078 0 0 0 0 0.0119216 0 0 0 0.1 0"/>
<feBlend mode="normal" in2="effect1_innerShadow_0_1" result="effect2_innerShadow_0_1"/>
</filter>
<filter id="filter1_f_0_1" x="-171" y="-855" width="2892.5" height="2152.61" filterUnits="userSpaceOnUse" color-interpolation-filters="sRGB">
<feFlood flood-opacity="0" result="BackgroundImageFix"/>
<feBlend mode="normal" in="SourceGraphic" in2="BackgroundImageFix" result="shape"/>
<feGaussianBlur stdDeviation="200" result="effect1_foregroundBlur_0_1"/>
</filter>
<linearGradient id="paint0_linear_0_1" x1="14" y1="9.66749" x2="14" y2="43.0117" gradientUnits="userSpaceOnUse">
<stop stop-color="#BF0B30"/>
<stop offset="1" stop-color="#002768"/>
</linearGradient>
<linearGradient id="paint1_linear_0_1" x1="14" y1="-14.0117" x2="14" y2="43.0117" gradientUnits="userSpaceOnUse">
<stop stop-color="#BF0B30"/>
<stop offset="1" stop-color="#002768"/>
</linearGradient>
<linearGradient id="paint2_linear_0_1" x1="249.249" y1="-422.742" x2="2301.25" y2="865.356" gradientUnits="userSpaceOnUse">
<stop stop-color="#BF0B30" stop-opacity="0"/>
<stop offset="0.47" stop-color="#BF0B30"/>
<stop offset="1" stop-color="#BF0B30" stop-opacity="0"/>
</linearGradient>
<clipPath id="clip0_0_1">
<rect width="1920" height="7590" fill="white" transform="translate(-536 -7353)"/>
</clipPath>
</defs>
</svg>
