<svg width="28" height="29" viewBox="0 0 28 29" fill="none" xmlns="http://www.w3.org/2000/svg">
<rect width="28" height="29" fill="#1E1E1E"/>
<g clip-path="url(#clip0_0_1)">
<rect width="1920" height="7590" transform="translate(-129 -7353)" fill="#FDFDFD"/>
<g opacity="0.5">
<path d="M74.7148 -429.5L74.6279 -428.926L39.2842 -194.075L224.021 -337.225L224.479 -337.58L224.763 -337.074L297.436 -207.713L297.722 -207.204L297.175 -207L77.1797 -125L297.175 -43L297.722 -42.7969L297.437 -42.2871L223.147 90.3086L222.861 90.8193L222.401 90.4561L39.2793 -54.2979L73.0137 178.929L73.0967 179.5H-76.6289L-76.5547 178.936L-46.0332 -54.2939L-229.167 93.6865L-229.627 94.0576L-229.917 93.5439L-307.436 -43.9033L-307.723 -44.4121L-307.176 -44.6172L-88.8115 -126.607L-307.17 -205.381L-307.725 -205.581L-307.437 -206.096L-233.147 -338.691L-232.864 -339.196L-232.406 -338.843L-44.4209 -194.055L-76.5537 -428.933L-76.6318 -429.5H74.7148Z" stroke="white"/>
<path d="M74.7148 -429.5L74.6279 -428.926L39.2842 -194.075L224.021 -337.225L224.479 -337.58L224.763 -337.074L297.436 -207.713L297.722 -207.204L297.175 -207L77.1797 -125L297.175 -43L297.722 -42.7969L297.437 -42.2871L223.147 90.3086L222.861 90.8193L222.401 90.4561L39.2793 -54.2979L73.0137 178.929L73.0967 179.5H-76.6289L-76.5547 178.936L-46.0332 -54.2939L-229.167 93.6865L-229.627 94.0576L-229.917 93.5439L-307.436 -43.9033L-307.723 -44.4121L-307.176 -44.6172L-88.8115 -126.607L-307.17 -205.381L-307.725 -205.581L-307.437 -206.096L-233.147 -338.691L-232.864 -339.196L-232.406 -338.843L-44.4209 -194.055L-76.5537 -428.933L-76.6318 -429.5H74.7148Z" stroke="url(#paint0_linear_0_1)"/>
</g>
<g filter="url(#filter0_ii_0_1)">
<path d="M-13.1135 13.3594C-13.1135 -1.75725 -0.859024 -14.0117 14.2577 -14.0117C29.3743 -14.0117 41.6288 -1.75722 41.6288 13.3595V15.6405C41.6288 30.7572 29.3743 43.0117 14.2577 43.0117C-0.859024 43.0117 -13.1135 30.7572 -13.1135 15.6405V13.3594Z" fill="url(#paint1_linear_0_1)" fill-opacity="0.1"/>
<path d="M14.2576 -13.5117C29.0981 -13.5117 41.1286 -1.48113 41.1287 13.3594V15.6406C41.1286 30.4811 29.0981 42.5117 14.2576 42.5117C-0.582888 42.5117 -12.6135 30.4811 -12.6135 15.6406V13.3594C-12.6135 -1.48111 -0.58291 -13.5117 14.2576 -13.5117Z" stroke="url(#paint2_linear_0_1)"/>
<path d="M23.324 24.7638C20.9481 24.7638 18.6007 24.2461 16.2819 23.2106C13.963 22.1751 11.8533 20.7066 9.95257 18.8052C8.05188 16.9037 6.58378 14.7939 5.54828 12.4758C4.51279 10.1578 3.99466 7.81039 3.9939 5.43377C3.9939 5.09164 4.10794 4.80654 4.33602 4.57845C4.5641 4.35037 4.84921 4.23633 5.19133 4.23633H9.81002C10.0761 4.23633 10.3137 4.3268 10.5228 4.50775C10.7319 4.68869 10.8554 4.90233 10.8934 5.14866L11.6347 9.14012C11.6727 9.44423 11.6632 9.70082 11.6062 9.9099C11.5492 10.119 11.4446 10.2995 11.2926 10.4516L8.52705 13.2456C8.90719 13.9489 9.35842 14.6282 9.88073 15.2835C10.403 15.9389 10.9782 16.5711 11.6062 17.1801C12.1954 17.7693 12.8131 18.3159 13.4594 18.82C14.1056 19.324 14.7898 19.7848 15.5121 20.2022L18.1921 17.5222C18.3631 17.3511 18.5867 17.223 18.8626 17.1379C19.1386 17.0527 19.4093 17.0288 19.6746 17.066L23.6091 17.8643C23.8752 17.9403 24.0937 18.0783 24.2648 18.2783C24.4359 18.4782 24.5214 18.7014 24.5214 18.9477V23.5664C24.5214 23.9085 24.4074 24.1936 24.1793 24.4217C23.9512 24.6498 23.6661 24.7638 23.324 24.7638Z" fill="#BF0B30"/>
</g>
</g>
<defs>
<filter id="filter0_ii_0_1" x="-31.3894" y="-32.2876" width="91.294" height="93.5752" filterUnits="userSpaceOnUse" color-interpolation-filters="sRGB">
<feFlood flood-opacity="0" result="BackgroundImageFix"/>
<feBlend mode="normal" in="SourceGraphic" in2="BackgroundImageFix" result="shape"/>
<feColorMatrix in="SourceAlpha" type="matrix" values="0 0 0 0 0 0 0 0 0 0 0 0 0 0 0 0 0 0 127 0" result="hardAlpha"/>
<feOffset dx="-9.13793" dy="9.13793"/>
<feGaussianBlur stdDeviation="4.56897"/>
<feComposite in2="hardAlpha" operator="arithmetic" k2="-1" k3="1"/>
<feColorMatrix type="matrix" values="0 0 0 0 1 0 0 0 0 1 0 0 0 0 1 0 0 0 0.1 0"/>
<feBlend mode="normal" in2="shape" result="effect1_innerShadow_0_1"/>
<feColorMatrix in="SourceAlpha" type="matrix" values="0 0 0 0 0 0 0 0 0 0 0 0 0 0 0 0 0 0 127 0" result="hardAlpha"/>
<feOffset dx="9.13793" dy="-9.13793"/>
<feGaussianBlur stdDeviation="4.56897"/>
<feComposite in2="hardAlpha" operator="arithmetic" k2="-1" k3="1"/>
<feColorMatrix type="matrix" values="0 0 0 0 0.661647 0 0 0 0 0.140078 0 0 0 0 0.0119216 0 0 0 0.1 0"/>
<feBlend mode="normal" in2="effect1_innerShadow_0_1" result="effect2_innerShadow_0_1"/>
</filter>
<linearGradient id="paint0_linear_0_1" x1="-5" y1="-429" x2="-5" y2="179" gradientUnits="userSpaceOnUse">
<stop stop-color="#BF0B30"/>
<stop offset="1" stop-color="#FDFDFD"/>
</linearGradient>
<linearGradient id="paint1_linear_0_1" x1="14.2577" y1="9.66749" x2="14.2577" y2="43.0117" gradientUnits="userSpaceOnUse">
<stop stop-color="#BF0B30"/>
<stop offset="1" stop-color="#002768"/>
</linearGradient>
<linearGradient id="paint2_linear_0_1" x1="14.2577" y1="-14.0117" x2="14.2577" y2="43.0117" gradientUnits="userSpaceOnUse">
<stop stop-color="#BF0B30"/>
<stop offset="1" stop-color="#002768"/>
</linearGradient>
<clipPath id="clip0_0_1">
<rect width="1920" height="7590" fill="white" transform="translate(-129 -7353)"/>
</clipPath>
</defs>
</svg>
