<svg width="407" height="673" viewBox="0 0 407 673" fill="none" xmlns="http://www.w3.org/2000/svg">
<g opacity="0.5">
<path d="M422.564 1.43848L422.478 2.0127L383.498 260.919L587.238 103.104L587.696 102.75L587.98 103.255L668.091 245.798L668.377 246.308L667.829 246.512L425.196 336.914L667.829 427.316L668.376 427.521L668.091 428.029L586.2 574.136L585.914 574.646L585.454 574.283L383.492 414.7L420.698 671.817L420.78 672.39H255.853L255.927 671.824L289.588 414.704L87.6143 577.844L87.1553 578.215L86.8652 577.7L1.41406 426.249L1.12695 425.74L1.67383 425.535L242.513 335.142L1.67969 248.295L1.125 248.095L1.41309 247.58L83.3037 101.474L83.5869 100.97L84.0449 101.322L291.365 260.938L255.927 2.00586L255.849 1.43848H422.564Z" stroke="white"/>
<path d="M422.564 1.43848L422.478 2.0127L383.498 260.919L587.238 103.104L587.696 102.75L587.98 103.255L668.091 245.798L668.377 246.308L667.829 246.512L425.196 336.914L667.829 427.316L668.376 427.521L668.091 428.029L586.2 574.136L585.914 574.646L585.454 574.283L383.492 414.7L420.698 671.817L420.78 672.39H255.853L255.927 671.824L289.588 414.704L87.6143 577.844L87.1553 578.215L86.8652 577.7L1.41406 426.249L1.12695 425.74L1.67383 425.535L242.513 335.142L1.67969 248.295L1.125 248.095L1.41309 247.58L83.3037 101.474L83.5869 100.97L84.0449 101.322L291.365 260.938L255.927 2.00586L255.849 1.43848H422.564Z" stroke="url(#paint0_linear_55_971)"/>
</g>
<defs>
<linearGradient id="paint0_linear_55_971" x1="334.752" y1="1.93848" x2="334.752" y2="671.889" gradientUnits="userSpaceOnUse">
<stop stop-color="white"/>
<stop offset="1" stop-color="white" stop-opacity="0"/>
</linearGradient>
</defs>
</svg>
